<!-- Generated by IcoMoon.io -->
<svg version="1.1" xmlns="http://www.w3.org/2000/svg" width="640" height="640" viewBox="0 0 640 640">
<title></title>
<g id="icomoon-ignore">
</g>
<path fill="#000" d="M320 640c-176.731 0-320-143.269-320-320s143.269-320 320-320v0c176.731 0 320 143.269 320 320s-143.269 320-320 320v0zM224 192v64c0 53.019 42.981 96 96 96s96-42.981 96-96v0-64c0-53.019-42.981-96-96-96s-96 42.981-96 96v0zM107.2 462.080c46.588 68.954 124.47 113.69 212.8 113.69s166.211-44.736 212.224-112.786l0.576-0.904c-62.444-29.368-135.62-46.509-212.8-46.509s-150.356 17.141-215.929 47.824l3.129-1.315z"></path>
</svg>
